<svg width="357.18125px" height="122px" xmlns="http://www.w3.org/2000/svg" viewBox="71.40937500000001 14 357.18125 122" style="background:#596886" preserveAspectRatio="xMidYMid"><defs><filter id="editing-hover" x="-100%" y="-100%" width="300%" height="300%"><feFlood flood-color="#052b4a" result="flood"></feFlood><feComposite operator="in" in2="SourceAlpha" in="flood" result="shadow"></feComposite><feOffset dx="-4" dy="-4" in="SourceGraphic" result="offset-1"></feOffset><feOffset dx="4" dy="4" in="shadow" result="offset-2"></feOffset><feMerge><feMergeNode in="offset-2"></feMergeNode><feMergeNode in="offset-1"></feMergeNode></feMerge></filter></defs><g filter="url(#editing-hover)"><g transform="translate(126.9249820113182, 97.39999961853027)"><path d="M27.84-9.86L27.84-9.86L27.84-9.86Q29.06-8.32 29.06-5.34L29.06-5.34L29.06-5.34Q29.06-2.37 26.78-0.54L26.78-0.54L26.78-0.54Q24.51 1.28 20.54 1.28L20.54 1.28L20.54 1.28Q18.24 1.28 14.66 0.77L14.66 0.77L14.66 0.77Q7.62-0.32 5.60-0.32L5.60-0.32L5.60-0.32Q3.58-0.32 2.75-0.22L2.75-0.22L2.75-0.22Q1.92-0.13 0.58 0L0.58 0L8.32-42.24L22.34-42.24L15.94-7.04L15.94-7.04Q16.77-6.91 17.54-6.91L17.54-6.91L19.14-6.91L19.14-6.91Q24.51-6.91 27.84-9.86ZM58.30-29.57L58.30-29.57L58.30-29.57Q59.26-31.49 59.26-33.28L59.26-33.28L59.26-33.28Q59.26-35.07 59.07-36.06L59.07-36.06L59.07-36.06Q58.88-37.06 58.43-37.82L58.43-37.82L58.43-37.82Q57.47-39.49 55.55-39.49L55.55-39.49L55.55-39.49Q53.18-39.49 51.26-37.76L51.26-37.76L51.26-37.76Q49.22-35.97 49.22-33.15L49.22-33.15L49.22-33.15Q49.22-31.36 50.46-29.98L50.46-29.98L50.46-29.98Q51.71-28.61 53.63-27.33L53.63-27.33L53.63-27.33Q55.55-26.05 57.73-24.77L57.73-24.77L57.73-24.77Q59.90-23.49 61.82-21.95L61.82-21.95L61.82-21.95Q66.24-18.43 66.24-13.70L66.24-13.70L66.24-13.70Q66.24-10.50 64.54-7.78L64.54-7.78L64.54-7.78Q62.85-5.06 60.03-3.07L60.03-3.07L60.03-3.07Q53.89 1.28 45.76 1.28L45.76 1.28L45.76 1.28Q39.17 1.28 35.78-0.86L35.78-0.86L35.78-0.86Q32.38-3.01 32.38-6.27L32.38-6.27L32.38-6.27Q32.38-12.10 36.93-13.57L36.93-13.57L36.93-13.57Q38.21-14.02 40.16-14.02L40.16-14.02L40.16-14.02Q42.11-14.02 44.35-13.18L44.35-13.18L44.35-13.18Q43.33-10.56 43.33-8.19L43.33-8.19L43.33-8.19Q43.33-3.07 46.98-3.07L46.98-3.07L46.98-3.07Q49.34-3.07 51.30-4.80L51.30-4.80L51.30-4.80Q53.25-6.53 53.25-8.48L53.25-8.48L53.25-8.48Q53.25-10.43 52-11.84L52-11.84L52-11.84Q50.75-13.25 48.90-14.37L48.90-14.37L48.90-14.37Q47.04-15.49 44.90-16.58L44.90-16.58L44.90-16.58Q42.75-17.66 40.90-19.20L40.90-19.20L40.90-19.20Q36.54-22.72 36.54-28.35L36.54-28.35L36.54-28.35Q36.54-32 38.34-34.85L38.34-34.85L38.34-34.85Q40.13-37.70 43.01-39.62L43.01-39.62L43.01-39.62Q48.77-43.52 55.84-43.52L55.84-43.52L55.84-43.52Q62.91-43.52 66.34-41.41L66.34-41.41L66.34-41.41Q69.76-39.30 69.76-35.71L69.76-35.71L69.76-35.71Q69.76-32.58 67.33-30.59L67.33-30.59L67.33-30.59Q65.22-28.93 62.66-28.93L62.66-28.93L62.66-28.93Q60.10-28.93 58.30-29.57ZM70.46-0.32L70.46-0.32L78.53-42.24L78.53-42.24Q86.08-42.88 90.94-42.88L90.94-42.88L90.94-42.88Q95.81-42.88 98.94-42.46L98.94-42.46L98.94-42.46Q102.08-42.05 104.19-40.96L104.19-40.96L104.19-40.96Q108.42-38.91 108.42-33.28L108.42-33.28L108.42-33.28Q108.42-30.02 105.60-27.26L105.60-27.26L105.60-27.26Q102.98-24.77 100.10-24.19L100.10-24.19L100.10-24.19Q103.17-23.68 105.34-21.38L105.34-21.38L105.34-21.38Q107.65-18.94 107.65-15.17L107.65-15.17L107.65-15.17Q107.65-7.87 102.21-3.62L102.21-3.62L102.21-3.62Q96.77 0.64 86.08 0.64L86.08 0.64L86.08 0.64Q78.72 0.64 70.46-0.32ZM87.87-20.61L84.67-4.03L84.67-4.03Q85.25-3.97 85.38-3.97L85.38-3.97L85.95-3.97L85.95-3.97Q91.20-3.97 93.44-7.42L93.44-7.42L93.44-7.42Q95.10-10.11 95.10-15.04L95.10-15.04L95.10-15.04Q95.10-17.66 93.41-19.07L93.41-19.07L93.41-19.07Q91.71-20.48 87.87-20.61L87.87-20.61ZM97.60-33.22L97.60-33.22L97.60-33.22Q97.60-38.53 92.48-38.53L92.48-38.53L91.90-38.53L91.90-38.53Q91.65-38.53 91.26-38.46L91.26-38.46L88.70-24.96L89.34-24.96L89.34-24.96Q97.60-25.15 97.60-33.22ZM126.27-9.47L126.27-9.47L126.27-9.47Q126.27-11.97 126.91-15.17L126.91-15.17L132.10-42.24L146.24-42.24L141.12-14.98L141.12-14.98Q140.54-11.97 140.54-9.76L140.54-9.76L140.54-9.76Q140.54-7.55 141.47-6.40L141.47-6.40L141.47-6.40Q142.40-5.25 144.13-5.25L144.13-5.25L144.13-5.25Q145.86-5.25 146.94-5.70L146.94-5.70L146.94-5.70Q148.03-6.14 148.93-7.23L148.93-7.23L148.93-7.23Q150.66-9.41 151.74-14.98L151.74-14.98L156.93-42.24L166.59-42.24L161.47-15.04L161.47-15.04Q159.68-5.95 154.75-2.30L154.75-2.30L154.75-2.30Q149.95 1.28 140.48 1.28L140.48 1.28L140.48 1.28Q133.38 1.28 129.60-1.79L129.60-1.79L129.60-1.79Q126.27-4.48 126.27-9.47ZM201.28-13.25L201.28-13.25L201.28-13.25Q202.94-12.03 202.94-9.44L202.94-9.44L202.94-9.44Q202.94-6.85 201.82-5.02L201.82-5.02L201.82-5.02Q200.70-3.20 198.53-1.79L198.53-1.79L198.53-1.79Q193.86 1.22 185.70 1.22L185.70 1.22L185.70 1.22Q177.54 1.22 173.09-3.04L173.09-3.04L173.09-3.04Q168.64-7.30 168.64-14.85L168.64-14.85L168.64-14.85Q168.64-25.54 174.21-33.66L174.21-33.66L174.21-33.66Q178.43-39.68 185.98-42.24L185.98-42.24L185.98-42.24Q189.89-43.52 193.73-43.52L193.73-43.52L193.73-43.52Q197.57-43.52 199.94-43.01L199.94-43.01L199.94-43.01Q202.30-42.50 204.10-41.47L204.10-41.47L204.10-41.47Q208-39.23 208-35.65L208-35.65L208-35.65Q208-32.38 204.93-29.95L204.93-29.95L204.93-29.95Q202.11-27.78 199.81-27.78L199.81-27.78L199.81-27.78Q197.50-27.78 196.54-28.10L196.54-28.10L196.54-28.10Q196.80-30.40 196.80-31.90L196.80-31.90L196.80-31.90Q196.80-33.41 196.74-34.50L196.74-34.50L196.74-34.50Q196.67-35.58 196.35-36.61L196.35-36.61L196.35-36.61Q195.71-38.98 193.76-38.98L193.76-38.98L193.76-38.98Q191.81-38.98 189.86-37.15L189.86-37.15L189.86-37.15Q187.90-35.33 186.24-32.26L186.24-32.26L186.24-32.26Q182.46-25.28 182.46-17.02L182.46-17.02L182.46-17.02Q182.46-13.06 184.70-10.78L184.70-10.78L184.70-10.78Q186.94-8.51 191.74-8.51L191.74-8.51L191.74-8.51Q195.33-8.51 198.72-10.88L198.72-10.88L198.72-10.88Q200.19-11.90 201.28-13.25ZM207.62-0.32L207.62-0.32L215.68-42.24L215.68-42.24Q223.23-42.88 228.10-42.88L228.10-42.88L228.10-42.88Q232.96-42.88 236.10-42.46L236.10-42.46L236.10-42.46Q239.23-42.05 241.34-40.96L241.34-40.96L241.34-40.96Q245.57-38.91 245.57-33.28L245.57-33.28L245.57-33.28Q245.57-30.02 242.75-27.26L242.75-27.26L242.75-27.26Q240.13-24.77 237.25-24.19L237.25-24.19L237.25-24.19Q240.32-23.68 242.50-21.38L242.50-21.38L242.50-21.38Q244.80-18.94 244.80-15.17L244.80-15.17L244.80-15.17Q244.80-7.87 239.36-3.62L239.36-3.62L239.36-3.62Q233.92 0.64 223.23 0.64L223.23 0.64L223.23 0.64Q215.87 0.64 207.62-0.32ZM225.02-20.61L221.82-4.03L221.82-4.03Q222.40-3.97 222.53-3.97L222.53-3.97L223.10-3.97L223.10-3.97Q228.35-3.97 230.59-7.42L230.59-7.42L230.59-7.42Q232.26-10.11 232.26-15.04L232.26-15.04L232.26-15.04Q232.26-17.66 230.56-19.07L230.56-19.07L230.56-19.07Q228.86-20.48 225.02-20.61L225.02-20.61ZM234.75-33.22L234.75-33.22L234.75-33.22Q234.75-38.53 229.63-38.53L229.63-38.53L229.06-38.53L229.06-38.53Q228.80-38.53 228.42-38.46L228.42-38.46L225.86-24.96L226.50-24.96L226.50-24.96Q234.75-25.15 234.75-33.22Z" fill="#ffd5af"></path></g></g><style>text {
  font-size: 64px;
  font-family: Arial Black;
  dominant-baseline: central;
  text-anchor: middle;
}</style></svg>